<?xml version="1.0" encoding="utf-8"?>
<!-- Generator: Adobe Illustrator 17.0.0, SVG Export Plug-In . SVG Version: 6.00 Build 0)  -->
<!DOCTYPE svg PUBLIC "-//W3C//DTD SVG 1.1//EN" "http://www.w3.org/Graphics/SVG/1.1/DTD/svg11.dtd">
<svg version="1.1" id="Layer_1" xmlns="http://www.w3.org/2000/svg" xmlns:xlink="http://www.w3.org/1999/xlink" x="0px" y="0px"
	 width="295.5px" height="40px" viewBox="0 0 295.5 40" enable-background="new 0 0 295.5 40" xml:space="preserve">
<g>
	<linearGradient id="SVGID_1_" gradientUnits="userSpaceOnUse" x1="17.9513" y1="16.5714" x2="19.0397" y2="16.5714">
		<stop  offset="0" style="stop-color:#005A8A"/>
		<stop  offset="1" style="stop-color:#002A4B"/>
	</linearGradient>
	<polygon fill="url(#SVGID_1_)" points="19.04,18.945 18.48,18.596 17.951,18.911 17.951,14.552 18.496,14.198 19.04,14.552 	"/>
	<linearGradient id="SVGID_2_" gradientUnits="userSpaceOnUse" x1="11.1344" y1="18.7069" x2="13.2802" y2="21.7655">
		<stop  offset="0" style="stop-color:#005A8A"/>
		<stop  offset="1" style="stop-color:#002A4B"/>
	</linearGradient>
	<polyline fill="url(#SVGID_2_)" points="18.541,18.596 7.102,25.359 3.708,23.209 18.556,14.198 	"/>
	<linearGradient id="SVGID_3_" gradientUnits="userSpaceOnUse" x1="25.7828" y1="18.7428" x2="24.1171" y2="22.1264">
		<stop  offset="0" style="stop-color:#005A8A"/>
		<stop  offset="1" style="stop-color:#002A4B"/>
	</linearGradient>
	<polyline fill="url(#SVGID_3_)" points="18.496,14.198 33.08,23.266 29.548,25.495 18.48,18.596 	"/>
</g>
<linearGradient id="SVGID_4_" gradientUnits="userSpaceOnUse" x1="622.0721" y1="145.8288" x2="623.1605" y2="145.8288" gradientTransform="matrix(-1 0 0 -1 641.0547 180.2266)">
	<stop  offset="0" style="stop-color:#005A8A"/>
	<stop  offset="1" style="stop-color:#002A4B"/>
</linearGradient>
<polygon fill="url(#SVGID_4_)" points="17.894,31.978 18.514,32.334 18.983,32.011 18.983,36.469 18.499,36.817 17.894,36.359 "/>
<linearGradient id="SVGID_5_" gradientUnits="userSpaceOnUse" x1="614.309" y1="148.8222" x2="616.3852" y2="151.7816" gradientTransform="matrix(-1 0 0 -1 641.0547 180.2266)">
	<stop  offset="0" style="stop-color:#005A8A"/>
	<stop  offset="1" style="stop-color:#002A4B"/>
</linearGradient>
<polyline fill="url(#SVGID_5_)" points="18.514,32.259 33.08,23.266 33.08,27.645 18.499,36.817 "/>
<linearGradient id="SVGID_6_" gradientUnits="userSpaceOnUse" x1="630.7947" y1="148.4994" x2="628.9951" y2="152.1553" gradientTransform="matrix(-1 0 0 -1 641.0547 180.2266)">
	<stop  offset="0" style="stop-color:#005A8A"/>
	<stop  offset="1" style="stop-color:#002A4B"/>
</linearGradient>
<polyline fill="url(#SVGID_6_)" points="18.499,36.817 3.708,27.739 3.708,23.209 18.514,32.259 "/>
<g>
	<linearGradient id="SVGID_7_" gradientUnits="userSpaceOnUse" x1="17.9513" y1="11.4898" x2="19.0397" y2="11.4898">
		<stop  offset="0" style="stop-color:#0071A9"/>
		<stop  offset="1" style="stop-color:#00436B"/>
	</linearGradient>
	<polygon fill="url(#SVGID_7_)" points="19.04,13.863 18.48,13.514 17.951,13.829 17.951,9.47 18.496,9.117 19.04,9.47 	"/>
	<linearGradient id="SVGID_8_" gradientUnits="userSpaceOnUse" x1="11.1343" y1="13.6251" x2="13.2801" y2="16.6836">
		<stop  offset="0" style="stop-color:#0071A9"/>
		<stop  offset="1" style="stop-color:#00436B"/>
	</linearGradient>
	<polyline fill="url(#SVGID_8_)" points="18.541,13.514 7.102,20.278 3.708,18.127 18.556,9.117 	"/>
	<linearGradient id="SVGID_9_" gradientUnits="userSpaceOnUse" x1="25.7828" y1="13.6614" x2="24.1171" y2="17.045">
		<stop  offset="0" style="stop-color:#0071A9"/>
		<stop  offset="1" style="stop-color:#00436B"/>
	</linearGradient>
	<polyline fill="url(#SVGID_9_)" points="18.496,9.117 33.08,18.185 29.548,20.414 18.48,13.514 	"/>
</g>
<linearGradient id="SVGID_10_" gradientUnits="userSpaceOnUse" x1="622.0721" y1="150.9109" x2="623.1605" y2="150.9109" gradientTransform="matrix(-1 0 0 -1 641.0547 180.2266)">
	<stop  offset="0" style="stop-color:#005A8A"/>
	<stop  offset="1" style="stop-color:#002A4B"/>
</linearGradient>
<polygon fill="url(#SVGID_10_)" points="17.894,26.896 18.514,27.253 18.983,26.929 18.983,31.388 18.499,31.735 17.894,31.277 "/>
<linearGradient id="SVGID_11_" gradientUnits="userSpaceOnUse" x1="614.309" y1="153.904" x2="616.385" y2="156.8631" gradientTransform="matrix(-1 0 0 -1 641.0547 180.2266)">
	<stop  offset="0" style="stop-color:#0071A9"/>
	<stop  offset="1" style="stop-color:#00436B"/>
</linearGradient>
<polyline fill="url(#SVGID_11_)" points="18.514,27.177 33.08,18.185 33.08,22.563 18.499,31.735 "/>
<linearGradient id="SVGID_12_" gradientUnits="userSpaceOnUse" x1="630.7947" y1="153.5816" x2="628.9951" y2="157.2373" gradientTransform="matrix(-1 0 0 -1 641.0547 180.2266)">
	<stop  offset="0" style="stop-color:#0071A9"/>
	<stop  offset="1" style="stop-color:#00436B"/>
</linearGradient>
<polyline fill="url(#SVGID_12_)" points="18.499,31.735 3.708,22.658 3.708,18.127 18.514,27.177 "/>
<g>
	<linearGradient id="SVGID_13_" gradientUnits="userSpaceOnUse" x1="17.9513" y1="6.4079" x2="19.0397" y2="6.4079">
		<stop  offset="0" style="stop-color:#538EBB"/>
		<stop  offset="1" style="stop-color:#305978"/>
	</linearGradient>
	<polygon fill="url(#SVGID_13_)" points="19.04,8.781 18.48,8.432 17.951,8.748 17.951,4.388 18.496,4.035 19.04,4.388 	"/>
	<linearGradient id="SVGID_14_" gradientUnits="userSpaceOnUse" x1="11.1343" y1="8.5432" x2="13.2801" y2="11.6018">
		<stop  offset="0" style="stop-color:#538EBB"/>
		<stop  offset="1" style="stop-color:#305978"/>
	</linearGradient>
	<polyline fill="url(#SVGID_14_)" points="18.541,8.432 7.102,15.196 3.708,13.045 18.556,4.035 	"/>
	<linearGradient id="SVGID_15_" gradientUnits="userSpaceOnUse" x1="25.7827" y1="8.5795" x2="24.1171" y2="11.9631">
		<stop  offset="0" style="stop-color:#538EBB"/>
		<stop  offset="1" style="stop-color:#305978"/>
	</linearGradient>
	<polyline fill="url(#SVGID_15_)" points="18.496,4.035 33.08,13.103 29.548,15.332 18.48,8.432 	"/>
</g>
<linearGradient id="SVGID_16_" gradientUnits="userSpaceOnUse" x1="622.0721" y1="155.9927" x2="623.1605" y2="155.9927" gradientTransform="matrix(-1 0 0 -1 641.0547 180.2266)">
	<stop  offset="0" style="stop-color:#005A8A"/>
	<stop  offset="1" style="stop-color:#002A4B"/>
</linearGradient>
<polygon fill="url(#SVGID_16_)" points="17.894,21.815 18.514,22.171 18.983,21.847 18.983,26.305 18.499,26.653 17.894,26.195 "/>
<linearGradient id="SVGID_17_" gradientUnits="userSpaceOnUse" x1="614.3087" y1="158.9857" x2="616.3849" y2="161.9451" gradientTransform="matrix(-1 0 0 -1 641.0547 180.2266)">
	<stop  offset="0" style="stop-color:#538EBB"/>
	<stop  offset="1" style="stop-color:#305978"/>
</linearGradient>
<polyline fill="url(#SVGID_17_)" points="18.514,22.096 33.08,13.103 33.08,17.482 18.499,26.653 "/>
<linearGradient id="SVGID_18_" gradientUnits="userSpaceOnUse" x1="630.7947" y1="158.6635" x2="628.9951" y2="162.3191" gradientTransform="matrix(-1 0 0 -1 641.0547 180.2266)">
	<stop  offset="0" style="stop-color:#538EBB"/>
	<stop  offset="1" style="stop-color:#305978"/>
</linearGradient>
<polyline fill="url(#SVGID_18_)" points="18.499,26.653 3.708,17.576 3.708,13.045 18.514,22.096 "/>
<g>
	<g>
		<path fill="#FFFFFF" d="M59.363,24.824c-1.262,1.143-2.938,1.695-5.087,1.695H49.92V13.132h5.087c2.07,0,3.647,0.611,4.732,1.814
			c1.025,1.143,1.558,2.781,1.558,4.91C61.295,22.024,60.645,23.66,59.363,24.824z M59.186,15.478
			c-0.947-0.985-2.445-1.596-4.219-1.596h-4.259v11.889h3.627c1.933,0,3.45-0.494,4.496-1.479c1.124-1.006,1.676-2.504,1.676-4.436
			C60.507,17.982,60.034,16.484,59.186,15.478z"/>
		<path fill="#FFFFFF" d="M63.86,26.519v-9.372h0.538v9.372H63.86z"/>
		<path fill="#FFFFFF" d="M74.267,25.746c-0.8,0.567-1.767,0.87-2.885,0.87c-1.477,0-2.664-0.414-3.547-1.256
			c-0.87-0.827-1.311-1.959-1.311-3.45c0-1.478,0.442-2.65,1.298-3.52c0.87-0.883,2.029-1.325,3.479-1.325
			c1.697,0,2.94,0.566,3.713,1.724l-0.455,0.304c-0.663-1.021-1.753-1.504-3.258-1.504c-1.27,0-2.306,0.387-3.092,1.159
			c-0.76,0.773-1.146,1.808-1.146,3.106c0,1.339,0.4,2.403,1.159,3.135c0.759,0.744,1.822,1.104,3.161,1.104
			c1.035,0,1.905-0.277,2.623-0.828c0.773-0.607,1.173-1.394,1.173-2.401v-0.594h-3.989v-0.524h4.514
			c0,0.194,0.028,0.773,0.028,0.952C75.731,24.007,75.248,25.029,74.267,25.746z"/>
		<path fill="#FFFFFF" d="M77.606,26.519v-9.372h0.538v9.372H77.606z"/>
		<path fill="#FFFFFF" d="M84.217,17.671v8.848h-0.538v-8.848h-3.437v-0.524h7.413v0.524H84.217z"/>
		<path fill="#FFFFFF" d="M95.728,26.519l-1.284-2.996h-4.886c-0.414,0.952-0.925,2.057-1.325,2.996h-0.621l4.155-9.372h0.511
			l4.044,9.372H95.728z M92.042,17.962c-0.76,1.669-1.518,3.34-2.264,5.038h4.417L92.042,17.962z"/>
		<path fill="#FFFFFF" d="M97.755,26.519v-9.372h0.552v8.848h5.673v0.524H97.755z"/>
	</g>
</g>
<g>
	<path fill="#2C95D2" d="M109.8,26.519c-0.237,0-0.394-0.158-0.394-0.374V13.506c0-0.235,0.158-0.394,0.394-0.394h8.931
		c0.217,0,0.375,0.158,0.375,0.394v0.355c0,0.217-0.158,0.376-0.375,0.376h-8.202v4.771h7.216c0.237,0,0.375,0.158,0.375,0.355
		v0.355c0,0.237-0.138,0.374-0.375,0.374h-7.216v5.324h8.281c0.237,0,0.394,0.138,0.394,0.374v0.355
		c0,0.216-0.158,0.374-0.394,0.374H109.8z"/>
	<path fill="#2C95D2" d="M128.908,26.519c-0.055,0-0.193-0.069-0.221-0.138l0.014,0.028c-2.125-2.747-4.017-5.204-6.143-7.951v7.798
		c0,0.153-0.096,0.263-0.262,0.263h-0.262c-0.166,0-0.276-0.11-0.276-0.263v-8.848c0-0.165,0.11-0.275,0.276-0.275h0.4
		c0.055,0,0.18,0.069,0.221,0.138l-0.014-0.028c0.704,0.966,1.808,2.387,3.299,4.279v-0.014c0.028,0.028,0.138,0.179,0.221,0.303
		c1.201,1.519,2.001,2.499,2.623,3.355v-7.758c0-0.165,0.096-0.275,0.262-0.275h0.262c0.166,0,0.276,0.11,0.276,0.275v8.848
		c0,0.153-0.11,0.263-0.276,0.263H128.908z"/>
	<path fill="#2C95D2" d="M139.506,25.746c-0.801,0.553-1.767,0.87-2.885,0.87c-1.45,0-2.636-0.442-3.534-1.27
		c-0.828-0.828-1.311-1.987-1.311-3.436c0-1.478,0.442-2.65,1.298-3.52c0.87-0.883,2.029-1.325,3.479-1.325
		c1.684,0,2.899,0.524,3.63,1.614c0.083,0.139,0.07,0.304-0.069,0.373c-0.069,0.055-0.166,0.11-0.221,0.151
		c-0.138,0.056-0.304,0.029-0.373-0.069c-0.552-0.87-1.56-1.298-2.967-1.298c-1.201,0-2.181,0.359-2.912,1.091
		c-0.718,0.717-1.077,1.684-1.077,2.925c0,1.256,0.372,2.265,1.091,2.954c0.704,0.691,1.711,1.021,2.967,1.021
		c0.98,0,1.808-0.248,2.471-0.772c0.718-0.567,1.09-1.284,1.09-2.222v-0.442h-3.602c-0.166,0-0.276-0.111-0.276-0.277v-0.234
		c0-0.167,0.11-0.277,0.276-0.277h4.127c0.138,0,0.248,0.11,0.248,0.248c0.014,0.194,0.028,0.649,0.028,0.815
		C140.983,23.979,140.5,25.015,139.506,25.746z"/>
	<path fill="#2C95D2" d="M150.987,26.519c-0.083,0-0.207-0.083-0.235-0.179v0.014c-0.4-0.938-0.773-1.808-1.173-2.748h-4.583
		c-0.124,0.277-0.248,0.526-0.372,0.815c-0.29,0.649-0.566,1.325-0.842,1.933V26.34c-0.028,0.096-0.166,0.179-0.235,0.179h-0.332
		c-0.207,0-0.317-0.193-0.235-0.373l3.92-8.848v0.014c0.028-0.083,0.152-0.179,0.235-0.179h0.345c0.069,0,0.206,0.096,0.235,0.179
		v-0.014c1.256,2.941,2.553,5.907,3.81,8.848c0.083,0.18-0.028,0.373-0.235,0.373H150.987z M147.33,18.39
		c-0.704,1.532-1.311,2.87-2.001,4.445h3.892L147.33,18.39z"/>
	<path fill="#2C95D2" d="M160.178,25.746c-0.8,0.553-1.767,0.87-2.885,0.87c-1.449,0-2.636-0.442-3.534-1.27
		c-0.828-0.828-1.311-1.987-1.311-3.436c0-1.478,0.442-2.65,1.298-3.52c0.87-0.883,2.029-1.325,3.479-1.325
		c1.684,0,2.899,0.524,3.63,1.614c0.083,0.139,0.069,0.304-0.069,0.373c-0.069,0.055-0.166,0.11-0.221,0.151
		c-0.138,0.056-0.303,0.029-0.373-0.069c-0.552-0.87-1.56-1.298-2.967-1.298c-1.201,0-2.181,0.359-2.912,1.091
		c-0.718,0.717-1.077,1.684-1.077,2.925c0,1.256,0.372,2.265,1.091,2.954c0.704,0.691,1.711,1.021,2.967,1.021
		c0.98,0,1.808-0.248,2.471-0.772c0.718-0.567,1.09-1.284,1.09-2.222v-0.442h-3.602c-0.166,0-0.276-0.111-0.276-0.277v-0.234
		c0-0.167,0.11-0.277,0.276-0.277h4.127c0.138,0,0.248,0.11,0.248,0.248c0.014,0.194,0.028,0.649,0.028,0.815
		C161.655,23.979,161.172,25.015,160.178,25.746z"/>
	<path fill="#2C95D2" d="M163.846,26.519c-0.166,0-0.276-0.11-0.276-0.263v-8.848c0-0.165,0.11-0.275,0.276-0.275h6.253
		c0.152,0,0.262,0.11,0.262,0.275v0.249c0,0.151-0.11,0.263-0.262,0.263h-5.742v3.34h5.052c0.166,0,0.262,0.11,0.262,0.249v0.248
		c0,0.167-0.096,0.263-0.262,0.263h-5.052v3.726h5.798c0.165,0,0.276,0.096,0.276,0.263v0.248c0,0.153-0.111,0.263-0.276,0.263
		H163.846z"/>
	<path fill="#2C95D2" d="M181.65,26.519c-0.166,0-0.262-0.11-0.262-0.263v-7.411c-1.187,2.511-2.402,5.024-3.602,7.509V26.34
		c-0.028,0.096-0.152,0.179-0.221,0.179h-0.318c-0.096,0-0.221-0.083-0.235-0.193c-1.298-2.678-2.319-4.831-3.616-7.509v7.439
		c0,0.153-0.111,0.263-0.262,0.263h-0.277c-0.151,0-0.262-0.11-0.262-0.263v-8.848c0-0.165,0.111-0.275,0.262-0.275h0.442
		c0.083,0,0.207,0.096,0.235,0.179v-0.014c1.311,2.76,2.54,5.273,3.852,8.033c0.621-1.298,1.242-2.581,1.877-3.878
		c0.649-1.325,1.339-2.789,2.001-4.156v0.014c0.028-0.083,0.166-0.179,0.235-0.179h0.428c0.152,0,0.263,0.11,0.263,0.275v8.848
		c0,0.153-0.111,0.263-0.263,0.263H181.65z"/>
	<path fill="#2C95D2" d="M184.628,26.519c-0.166,0-0.276-0.11-0.276-0.263v-8.848c0-0.165,0.11-0.275,0.276-0.275h6.253
		c0.152,0,0.263,0.11,0.263,0.275v0.249c0,0.151-0.111,0.263-0.263,0.263h-5.742v3.34h5.052c0.166,0,0.262,0.11,0.262,0.249v0.248
		c0,0.167-0.096,0.263-0.262,0.263h-5.052v3.726h5.798c0.165,0,0.276,0.096,0.276,0.263v0.248c0,0.153-0.111,0.263-0.276,0.263
		H184.628z"/>
	<path fill="#2C95D2" d="M200.471,26.519c-0.055,0-0.193-0.069-0.221-0.138l0.014,0.028c-2.125-2.747-4.017-5.204-6.142-7.951v7.798
		c0,0.153-0.097,0.263-0.263,0.263h-0.262c-0.166,0-0.276-0.11-0.276-0.263v-8.848c0-0.165,0.11-0.275,0.276-0.275h0.4
		c0.055,0,0.18,0.069,0.221,0.138l-0.014-0.028c0.704,0.966,1.808,2.387,3.299,4.279v-0.014c0.028,0.028,0.138,0.179,0.221,0.303
		c1.201,1.519,2.001,2.499,2.623,3.355v-7.758c0-0.165,0.096-0.275,0.262-0.275h0.262c0.166,0,0.276,0.11,0.276,0.275v8.848
		c0,0.153-0.11,0.263-0.276,0.263H200.471z"/>
	<path fill="#2C95D2" d="M207.412,17.92v8.336c0,0.153-0.083,0.263-0.249,0.263h-0.29c-0.166,0-0.248-0.11-0.248-0.263V17.92h-3.092
		c-0.152,0-0.248-0.111-0.248-0.263v-0.249c0-0.165,0.096-0.275,0.248-0.275h6.971c0.138,0,0.248,0.11,0.248,0.275v0.249
		c0,0.151-0.111,0.263-0.248,0.263H207.412z"/>
</g>
<g>
	<path fill="#FFFFFF" d="M224.444,26.519l-5.067-6.269c-1.715,2.07-3.45,4.2-5.146,6.269h-0.986l5.619-6.882
		c-1.715-2.07-3.628-4.456-5.343-6.506h1.045l4.811,5.916c1.617-1.933,3.234-3.963,4.85-5.916h0.986l-5.323,6.506
		c1.774,2.209,3.785,4.694,5.541,6.882H224.444z"/>
	<path fill="#FFFFFF" d="M233.159,21.826v-0.014c-0.594,0.373-1.353,0.567-2.264,0.567h-3.41v4.141h-0.538v-9.372h4.1
		c2.153,0,3.202,0.883,3.202,2.65C234.249,20.695,233.89,21.37,233.159,21.826z M231.13,17.671h-3.644v4.182h3.658
		c0.676,0,1.298-0.193,1.753-0.497c0.497-0.387,0.801-0.897,0.801-1.545C233.697,18.39,232.828,17.671,231.13,17.671z"/>
	<path fill="#FFFFFF" d="M235.973,26.519v-9.372h6.708v0.524h-6.17v3.713h5.466v0.512h-5.466v4.099h6.24v0.524H235.973z"/>
	<path fill="#FFFFFF" d="M251.141,21.537c-0.497,0.303-1.228,0.469-1.974,0.511c1.173,1.463,2.443,3.023,3.617,4.472h-0.705
		l-3.589-4.472h-3.009v4.472h-0.552v-9.372h4.114c2.139,0,3.202,0.828,3.202,2.484C252.246,20.487,251.887,21.095,251.141,21.537z
		 M249.112,17.685h-3.631v3.824h3.644c0.718,0,1.325-0.153,1.781-0.455c0.524-0.318,0.773-0.787,0.773-1.409
		C251.68,18.348,250.824,17.685,249.112,17.685z"/>
	<path fill="#FFFFFF" d="M254.37,26.519v-9.372h0.538v9.372H254.37z"/>
	<path fill="#FFFFFF" d="M256.992,26.519v-9.372h6.708v0.524h-6.17v3.713h5.466v0.512h-5.466v4.099h6.24v0.524H256.992z"/>
	<path fill="#FFFFFF" d="M273.098,26.519l-6.597-8.558v8.558h-0.552v-9.372h0.621c0.718,0.993,1.904,2.511,3.437,4.458
		c1.505,1.904,2.457,3.106,3.161,4.085v-8.544h0.552v9.372H273.098z"/>
	<path fill="#FFFFFF" d="M283.96,19.093c-0.663-1.021-1.739-1.504-3.257-1.504c-1.27,0-2.292,0.387-3.092,1.159
		c-0.76,0.773-1.132,1.808-1.132,3.106c0,1.27,0.372,2.306,1.091,3.078c0.745,0.773,1.739,1.16,2.995,1.16
		c1.45,0,2.54-0.511,3.285-1.545l0.442,0.316c-0.842,1.174-2.085,1.753-3.713,1.753c-1.435,0-2.567-0.428-3.395-1.284
		c-0.842-0.842-1.256-1.973-1.256-3.422c0-1.478,0.442-2.65,1.298-3.52c0.87-0.883,2.029-1.325,3.479-1.325
		c1.697,0,2.94,0.566,3.713,1.724L283.96,19.093z"/>
	<path fill="#FFFFFF" d="M286.277,26.519v-9.372h6.708v0.524h-6.17v3.713h5.466v0.512h-5.466v4.099h6.24v0.524H286.277z"/>
</g>
<line fill="#FFFFFF" stroke="#FFFFFF" stroke-width="0.3523" stroke-miterlimit="10" x1="41.966" y1="8.782" x2="41.966" y2="31.979"/>
</svg>
